HIERARCHY
ROOT Haolin_28_06:Solving:Hips
{
	OFFSET 0.000000 0.000000 0.000000
	CHANNELS 6 Xposition Yposition Zposition Xrotation Yrotation Zrotation
	JOINT Haolin_28_06:Solving:Spine
	{
		OFFSET 0.000000 -12.181966 2.015561
		CHANNELS 6 Xposition Yposition Zposition Xrotation Yrotation Zrotation
		JOINT Haolin_28_06:Solving:Spine1
		{
			OFFSET 0.000000 -8.890296 1.567602
			CHANNELS 6 Xposition Yposition Zposition Xrotation Yrotation Zrotation
			JOINT Haolin_28_06:Solving:Spine2
			{
				OFFSET 0.000000 -8.993092 0.786796
				CHANNELS 6 Xposition Yposition Zposition Xrotation Yrotation Zrotation
				JOINT Haolin_28_06:Solving:Spine3
				{
					OFFSET 0.000000 -9.027443 0.000000
					CHANNELS 6 Xposition Yposition Zposition Xrotation Yrotation Zrotation
					JOINT Haolin_28_06:Solving:Neck
					{
						OFFSET 0.000000 -11.606712 -1.160669
						CHANNELS 6 Xposition Yposition Zposition Xrotation Yrotation Zrotation
						JOINT Haolin_28_06:Solving:Neck1
						{
							OFFSET 0.000000 -7.471592 -0.653680
							CHANNELS 6 Xposition Yposition Zposition Xrotation Yrotation Zrotation
							JOINT Haolin_28_06:Solving:Head
							{
								OFFSET 0.000000 -7.386181 -1.302382
								CHANNELS 6 Xposition Yposition Zposition Xrotation Yrotation Zrotation
								JOINT Haolin_28_06:Solving:HeadEnd
								{
									OFFSET 0.000000 -9.728081 0.000002
									CHANNELS 6 Xposition Yposition Zposition Xrotation Yrotation Zrotation
									End Site
									{
										OFFSET 0.000000 -9.728081 0.000002
									}
								}
							}
						}
					}
					JOINT Haolin_28_06:Solving:RightShoulder
					{
						OFFSET 0.000000 -8.290508 -5.270916
						CHANNELS 6 Xposition Yposition Zposition Xrotation Yrotation Zrotation
						JOINT Haolin_28_06:Solving:RightArm
						{
							OFFSET -19.261074 -0.000008 0.000000
							CHANNELS 6 Xposition Yposition Zposition Xrotation Yrotation Zrotation
							JOINT Haolin_28_06:Solving:RightForeArm
							{
								OFFSET -30.691700 -0.000011 0.000000
								CHANNELS 6 Xposition Yposition Zposition Xrotation Yrotation Zrotation
								JOINT Haolin_28_06:Solving:RightHand
								{
									OFFSET -20.216934 -0.000008 0.000000
									CHANNELS 6 Xposition Yposition Zposition Xrotation Yrotation Zrotation
									JOINT Haolin_28_06:Solving:RightHandThumb1
									{
										OFFSET -4.948814 2.881329 -3.679893
										CHANNELS 6 Xposition Yposition Zposition Xrotation Yrotation Zrotation
										End Site
										{
											OFFSET -7.039886 -0.000004 -7.104978
										}
									}
									JOINT Haolin_28_06:Solving:RightHandMiddle1
									{
										OFFSET -13.196846 -0.000004 0.084595
										CHANNELS 6 Xposition Yposition Zposition Xrotation Yrotation Zrotation
										End Site
										{
											OFFSET -10.002037 -0.000004 0.000000
										}
									}
								}
							}
						}
					}
					JOINT Haolin_28_06:Solving:LeftShoulder
					{
						OFFSET 0.000000 -8.290508 -5.270916
						CHANNELS 6 Xposition Yposition Zposition Xrotation Yrotation Zrotation
						JOINT Haolin_28_06:Solving:LeftArm
						{
							OFFSET 19.261074 -0.000008 0.000000
							CHANNELS 6 Xposition Yposition Zposition Xrotation Yrotation Zrotation
							JOINT Haolin_28_06:Solving:LeftForeArm
							{
								OFFSET 30.691700 -0.000011 0.000000
								CHANNELS 6 Xposition Yposition Zposition Xrotation Yrotation Zrotation
								JOINT Haolin_28_06:Solving:LeftHand
								{
									OFFSET 20.216934 -0.000008 0.000000
									CHANNELS 6 Xposition Yposition Zposition Xrotation Yrotation Zrotation
									JOINT Haolin_28_06:Solving:LeftHandThumb1
									{
										OFFSET 4.948814 2.881329 -3.679893
										CHANNELS 6 Xposition Yposition Zposition Xrotation Yrotation Zrotation
										End Site
										{
											OFFSET 7.039886 -0.000004 -7.104978
										}
									}
									JOINT Haolin_28_06:Solving:LeftHandMiddle1
									{
										OFFSET 13.196846 -0.000004 0.084595
										CHANNELS 6 Xposition Yposition Zposition Xrotation Yrotation Zrotation
										End Site
										{
											OFFSET 10.002037 -0.000004 0.000000
										}
									}
								}
							}
						}
					}
				}
			}
		}
	}
	JOINT Haolin_28_06:Solving:RightUpLeg
	{
		OFFSET -10.083070 0.000000 0.000000
		CHANNELS 6 Xposition Yposition Zposition Xrotation Yrotation Zrotation
		JOINT Haolin_28_06:Solving:RightLeg
		{
			OFFSET 0.000000 47.042522 -0.000008
			CHANNELS 6 Xposition Yposition Zposition Xrotation Yrotation Zrotation
			JOINT Haolin_28_06:Solving:RightFoot
			{
				OFFSET 0.000000 38.766415 -0.000006
				CHANNELS 6 Xposition Yposition Zposition Xrotation Yrotation Zrotation
				JOINT Haolin_28_06:Solving:RightForeFoot
				{
					OFFSET 0.000000 3.531212 -0.000000
					CHANNELS 6 Xposition Yposition Zposition Xrotation Yrotation Zrotation
					JOINT Haolin_28_06:Solving:RightToeBase
					{
						OFFSET 0.000000 0.000000 -13.829352
						CHANNELS 6 Xposition Yposition Zposition Xrotation Yrotation Zrotation
						JOINT Haolin_28_06:Solving:RightToeBaseEnd
						{
							OFFSET 0.000000 0.000000 -4.034167
							CHANNELS 6 Xposition Yposition Zposition Xrotation Yrotation Zrotation
							End Site
							{
								OFFSET 0.000000 -4.034164 0.000004
							}
						}
					}
				}
			}
		}
	}
	JOINT Haolin_28_06:Solving:LeftUpLeg
	{
		OFFSET 10.083070 0.000000 0.000000
		CHANNELS 6 Xposition Yposition Zposition Xrotation Yrotation Zrotation
		JOINT Haolin_28_06:Solving:LeftLeg
		{
			OFFSET 0.000000 47.042522 -0.000008
			CHANNELS 6 Xposition Yposition Zposition Xrotation Yrotation Zrotation
			JOINT Haolin_28_06:Solving:LeftFoot
			{
				OFFSET 0.000000 38.766415 -0.000006
				CHANNELS 6 Xposition Yposition Zposition Xrotation Yrotation Zrotation
				JOINT Haolin_28_06:Solving:LeftForeFoot
				{
					OFFSET 0.000000 3.531212 -0.000000
					CHANNELS 6 Xposition Yposition Zposition Xrotation Yrotation Zrotation
					JOINT Haolin_28_06:Solving:LeftToeBase
					{
						OFFSET 0.000000 0.000000 -13.829352
						CHANNELS 6 Xposition Yposition Zposition Xrotation Yrotation Zrotation
						JOINT Haolin_28_06:Solving:LeftToeBaseEnd
						{
							OFFSET 0.000000 0.000000 -4.855067
							CHANNELS 6 Xposition Yposition Zposition Xrotation Yrotation Zrotation
							End Site
							{
								OFFSET 0.000000 -4.855064 0.000004
							}
						}
					}
				}
			}
		}
	}
}
MOTION
Frames: 4
Frame Time: 0.041667
14.536153 -97.423546 -93.237022 84.554689 -16.310893 1.583650 -0.000005 -12.181966 2.015570 16.765447 -0.112225 -5.840959 -0.000006 -8.890303 1.567596 0.600564 0.287171 -0.918194 0.000002 -8.993074 0.786758 0.372343 2.894157 -0.522190 0.000001 -9.027452 0.000007 1.756534 -0.101656 1.891252 -0.000005 -11.606730 -1.160652 -7.819325 5.503400 -0.069506 -0.000005 -7.471573 -0.653669 -2.075216 5.086899 -0.177499 -0.000003 -7.386186 -1.302372 3.098213 0.530013 -1.149071 -0.000001 -9.728081 -0.000006 0.000000 -0.000000 0.000000 -0.000005 -8.290508 -5.270904 -0.000007 17.647985 12.939553 -19.261080 -0.000020 -0.000006 -44.039817 -55.395597 -104.831499 -30.691717 -0.000022 0.000001 -718.388478 -64.231031 -718.548687 -20.216930 -0.000020 -0.000001 12.973028 -18.284370 36.289594 -4.948812 2.881328 -3.679861 0.000007 -0.000002 -0.000007 -13.196845 -0.000018 0.084586 0.000004 -0.000001 0.000001 -0.000007 -8.290493 -5.270907 -0.000004 -5.417845 -10.326837 19.261063 -0.000005 -0.000007 -45.035447 47.367345 104.753259 30.691679 -0.000003 -0.000008 29.938867 49.919868 -23.781529 20.216936 -0.000017 -0.000003 -0.297168 -0.740200 -21.873505 4.948793 2.881333 -3.679880 0.000002 0.000000 0.000002 13.196846 0.000002 0.084591 0.000007 -0.000001 0.000000 -10.083074 0.000003 0.000021 1.580235 11.116124 -8.546611 -0.000005 47.042538 -0.000019 10.391901 -0.000000 -0.000001 0.000002 38.766426 0.000009 1.949789 -0.048489 10.581128 -0.000003 3.531220 0.000018 0.000001 -0.000000 -0.000001 0.000005 -0.000005 -13.829368 0.506520 0.000001 0.000001 0.000003 -0.000007 -4.034157 0.000003 0.000002 -0.000000 10.083059 0.000014 -0.000001 4.049085 -25.325578 -17.620020 0.000003 47.042542 -0.000021 17.341642 -0.000003 -0.000003 -0.000017 38.766403 -0.000015 2.745043 -15.905887 10.154586 0.000007 3.531196 0.000001 0.000003 -0.000003 0.000004 0.000007 0.000015 -13.829364 -3.990069 0.000004 0.000002 0.000003 0.000000 -4.855067 0.000002 0.000003 -0.000002 
14.541412 -97.433029 -93.219170 84.442708 -16.295778 1.595237 0.000007 -12.181947 2.015554 16.805382 -0.134192 -5.879947 -0.000004 -8.890295 1.567608 0.608945 0.288148 -0.923557 -0.000001 -8.993118 0.786813 0.390562 2.923820 -0.522626 -0.000002 -9.027447 0.000017 1.739668 -0.096758 1.889518 0.000004 -11.606736 -1.160651 -7.879584 5.494619 -0.082383 -0.000000 -7.471599 -0.653693 -2.056530 5.009023 -0.199898 -0.000004 -7.386178 -1.302371 3.135221 0.525705 -1.164443 -0.000001 -9.728058 0.000001 0.000001 0.000000 0.000000 -0.000001 -8.290516 -5.270891 -0.000008 17.538468 12.842905 -19.261080 -0.000011 -0.000010 -44.695983 -55.231980 -105.599355 -30.691715 -0.000030 -0.000000 -721.011762 -63.087869 -720.902261 -20.216913 -0.000003 0.000008 12.999732 -18.189704 36.485054 -4.948825 2.881335 -3.679883 0.000001 -0.000003 0.000006 -13.196876 0.000004 0.084587 -0.000005 0.000005 0.000001 0.000001 -8.290531 -5.270887 -0.000007 -5.226599 -10.152076 19.261082 -0.000013 -0.000022 -45.680196 46.800466 105.341366 30.691717 -0.000003 0.000025 28.806190 48.332539 -22.331841 20.216942 -0.000007 -0.000006 -0.121741 -0.293291 -22.542069 4.948832 2.881328 -3.679884 0.000001 -0.000003 -0.000008 13.196867 -0.000012 0.084580 -0.000002 -0.000000 -0.000002 -10.083068 0.000003 -0.000003 1.643499 11.073926 -8.587230 0.000003 47.042526 -0.000024 10.479132 0.000000 -0.000001 -0.000010 38.766422 0.000019 1.894840 0.028732 10.600978 -0.000004 3.531219 -0.000012 -0.000000 -0.000001 0.000002 0.000002 0.000005 -13.829366 0.512567 0.000001 0.000000 -0.000006 0.000000 -4.034195 0.000000 -0.000001 0.000000 10.083082 0.000011 0.000000 4.126043 -25.319122 -17.660134 0.000001 47.042545 -0.000002 17.395389 0.000000 0.000000 -0.000004 38.766430 -0.000006 2.647686 -15.970102 10.131159 -0.000020 3.531204 -0.000001 0.000002 -0.000002 0.000002 -0.000013 0.000013 -13.829355 -3.981233 0.000003 0.000003 0.000016 -0.000001 -4.855058 -0.000001 0.000002 0.000000 
14.553089 -97.448570 -93.198738 84.370704 -16.283536 1.608824 0.000004 -12.181965 2.015577 16.829911 -0.131498 -5.924985 -0.000001 -8.890296 1.567595 0.610512 0.289936 -0.927079 0.000006 -8.993095 0.786792 0.409182 2.958889 -0.524650 0.000001 -9.027429 0.000023 1.733221 -0.093997 1.896293 0.000003 -11.606737 -1.160653 -7.950595 5.485697 -0.095941 0.000002 -7.471590 -0.653688 -2.062131 4.892376 -0.226031 -0.000004 -7.386151 -1.302381 3.136097 0.520955 -1.184696 -0.000001 -9.728111 -0.000000 -0.000001 -0.000000 -0.000000 0.000003 -8.290478 -5.270899 -0.000013 17.453908 12.794000 -19.261076 -0.000021 -0.000026 -45.143063 -54.912808 -106.167873 -30.691704 -0.000011 0.000012 -723.202996 -62.587059 -722.844002 -20.216913 -0.000017 0.000012 12.785481 -17.834186 36.536885 -4.948782 2.881320 -3.679883 -0.000002 -0.000000 0.000003 -13.196845 -0.000023 0.084589 -0.000009 -0.000001 0.000001 0.000000 -8.290462 -5.270903 -0.000010 -5.031137 -10.027097 19.261065 0.000013 -0.000012 -45.986725 46.066901 105.712422 30.691694 -0.000019 -0.000005 28.487886 47.421870 -21.781945 20.216932 -0.000002 0.000006 -0.099923 -0.233345 -23.179068 4.948799 2.881327 -3.679867 0.000002 0.000005 0.000000 13.196851 -0.000000 0.084607 -0.000003 0.000001 0.000006 -10.083073 0.000001 0.000006 1.654887 11.011973 -8.603257 -0.000001 47.042511 -0.000011 10.582649 -0.000001 -0.000001 -0.000004 38.766422 -0.000004 1.798438 0.067443 10.538596 -0.000002 3.531212 0.000018 0.000002 -0.000000 -0.000001 -0.000001 0.000008 -13.829347 0.547890 0.000000 0.000000 -0.000003 0.000000 -4.034189 0.000001 -0.000000 0.000000 10.083073 -0.000009 0.000013 4.173074 -25.298712 -17.681010 -0.000010 47.042515 -0.000018 17.450409 -0.000000 0.000001 -0.000018 38.766422 -0.000008 2.534822 -16.055068 10.116336 0.000010 3.531212 0.000007 0.000000 0.000000 0.000001 -0.000004 0.000010 -13.829369 -3.938568 -0.000000 0.000000 0.000008 0.000015 -4.855061 -0.000001 0.000002 -0.000000 
14.560614 -97.467232 -93.176292 84.321458 -16.264296 1.647250 -0.000005 -12.181990 2.015564 16.843600 -0.123417 -5.983933 -0.000000 -8.890279 1.567601 0.615123 0.293211 -0.932011 -0.000003 -8.993107 0.786787 0.435022 3.012690 -0.530118 -0.000004 -9.027455 -0.000017 1.723857 -0.088419 1.911844 0.000002 -11.606721 -1.160627 -8.051342 5.474198 -0.106865 -0.000001 -7.471602 -0.653664 -2.088515 4.770189 -0.257958 -0.000004 -7.386173 -1.302393 3.140916 0.518403 -1.216579 0.000001 -9.728058 0.000004 -0.000000 0.000000 -0.000000 0.000003 -8.290516 -5.270872 -0.000004 17.355632 12.793887 -19.261070 -0.000020 -0.000015 -45.372346 -54.461613 -106.539606 -30.691698 -0.000029 -0.000006 -725.404503 -62.710426 -724.806014 -20.216913 -0.000019 0.000012 12.491368 -17.397737 36.535382 -4.948793 2.881319 -3.679882 -0.000008 0.000002 0.000008 -13.196825 -0.000024 0.084607 -0.000001 0.000004 0.000007 0.000005 -8.290516 -5.270864 -0.000001 -4.856156 -9.983063 19.261066 0.000020 0.000005 -45.967965 45.328851 105.822791 30.691713 -0.000008 0.000008 28.625062 47.321002 -21.862657 20.216957 -0.000014 0.000002 -0.189407 -0.430788 -23.733852 4.948795 2.881338 -3.679876 -0.000010 -0.000002 -0.000005 13.196859 0.000004 0.084599 -0.000002 0.000003 -0.000002 -10.083076 -0.000024 0.000005 1.634074 10.969010 -8.644258 -0.000004 47.042522 -0.000005 10.710608 -0.000000 0.000000 -0.000005 38.766441 -0.000001 1.718878 0.133169 10.500955 0.000000 3.531220 0.000005 0.000001 -0.000000 0.000000 0.000000 -0.000004 -13.829360 0.557767 -0.000001 0.000002 -0.000000 0.000000 -4.034171 0.000001 -0.000000 0.000000 10.083071 -0.000002 0.000007 4.182816 -25.285719 -17.726351 -0.000006 47.042530 0.000001 17.511323 -0.000002 -0.000001 -0.000022 38.766422 0.000005 2.415416 -16.148790 10.109996 0.000002 3.531196 0.000012 0.000002 0.000001 -0.000001 0.000004 0.000010 -13.829346 -3.915152 0.000009 -0.000002 0.000002 0.000008 -4.855063 0.000001 -0.000001 -0.000001 
